<svg width="25" height="24" viewBox="0 0 25 24" fill="none" xmlns="http://www.w3.org/2000/svg">
<path d="M8.5 15.2C8.34178 15.2 8.18711 15.2469 8.05555 15.3348C7.92399 15.4227 7.82145 15.5477 7.7609 15.6939C7.70035 15.84 7.68451 16.0009 7.71537 16.1561C7.74624 16.3113 7.82243 16.4538 7.93432 16.5657C8.0462 16.6776 8.18875 16.7538 8.34393 16.7846C8.49911 16.8155 8.65997 16.7997 8.80615 16.7391C8.95233 16.6786 9.07727 16.576 9.16518 16.4445C9.25308 16.3129 9.3 16.1582 9.3 16C9.3 15.7878 9.21572 15.5843 9.06569 15.4343C8.91566 15.2843 8.71218 15.2 8.5 15.2ZM18.148 12L19.132 11.016C19.5814 10.566 19.8339 9.956 19.8339 9.32C19.8339 8.68399 19.5814 8.074 19.132 7.624L16.868 5.368C16.418 4.91856 15.808 4.66611 15.172 4.66611C14.536 4.66611 13.926 4.91856 13.476 5.368L12.5 6.352C12.4874 5.72383 12.229 5.12565 11.7803 4.68589C11.3316 4.24613 10.7283 3.99987 10.1 4L6.9 4C6.26348 4 5.65303 4.25286 5.20294 4.70294C4.75286 5.15303 4.5 5.76348 4.5 6.4L4.5 17.6C4.5 18.2365 4.75286 18.847 5.20295 19.2971C5.65303 19.7471 6.26348 20 6.9 20L18.1 20C18.7365 20 19.347 19.7471 19.7971 19.2971C20.2471 18.847 20.5 18.2365 20.5 17.6L20.5 14.4C20.5001 13.7717 20.2539 13.1684 19.8141 12.7197C19.3744 12.271 18.7762 12.0126 18.148 12ZM10.9 17.6C10.9 17.8122 10.8157 18.0157 10.6657 18.1657C10.5157 18.3157 10.3122 18.4 10.1 18.4L6.9 18.4C6.68783 18.4 6.48435 18.3157 6.33432 18.1657C6.18429 18.0157 6.1 17.8122 6.1 17.6L6.1 6.4C6.1 6.18783 6.18429 5.98434 6.33432 5.83431C6.48434 5.68429 6.68783 5.6 6.9 5.6L10.1 5.6C10.3122 5.6 10.5157 5.68428 10.6657 5.83431C10.8157 5.98434 10.9 6.18783 10.9 6.4L10.9 17.6ZM12.5 8.608L14.612 6.496C14.7619 6.347 14.9647 6.26336 15.176 6.26336C15.3873 6.26336 15.5901 6.347 15.74 6.496L18.004 8.8C18.153 8.94989 18.2366 9.15265 18.2366 9.364C18.2366 9.57535 18.153 9.77811 18.004 9.928L15.7 12.232L12.5 15.392L12.5 8.608ZM18.9 17.6C18.9 17.8122 18.8157 18.0157 18.6657 18.1657C18.5157 18.3157 18.3122 18.4 18.1 18.4L12.356 18.4C12.4381 18.1629 12.4839 17.9148 12.492 17.664L16.556 13.6L18.1 13.6C18.3122 13.6 18.5157 13.6843 18.6657 13.8343C18.8157 13.9843 18.9 14.1878 18.9 14.4L18.9 17.6Z" fill="white"/>
</svg>
